<?xml version="1.0" standalone="no"?><!DOCTYPE svg PUBLIC "-//W3C//DTD SVG 1.1//EN" "http://www.w3.org/Graphics/SVG/1.1/DTD/svg11.dtd"><svg t="1585066855590" class="icon" viewBox="0 0 1024 1024" version="1.1" xmlns="http://www.w3.org/2000/svg" p-id="11788" width="128" height="128" xmlns:xlink="http://www.w3.org/1999/xlink"><defs><style type="text/css"></style></defs><path d="M848.2 689.4v-151c0-41-33.3-74.3-74.3-74.3h-76.3c-7 0-12.7-5.7-12.7-12.7v-53.1c0-7-5.7-12.7-12.7-12.7H370.1c-39 0-70.7 31.6-70.7 70.7v350c0 39 31.6 70.7 70.7 70.7h244.2c39 0 70.7-31.6 70.7-70.7v-32.5c0-7 5.7-12.7 12.7-12.7h78.9c39.5 0 71.6-32.1 71.6-71.7zM796.4 708h-98.8c-7 0-12.7-5.7-12.7-12.7V535.8c0-7 5.7-12.7 12.7-12.7h98.8c20.8 0 37.7 16.9 37.7 37.7v109.3c0 21-16.9 37.9-37.7 37.9z" fill="#FFB345" p-id="11789"></path><path d="M670.7 398.3v53.1c0 7 5.7 12.7 12.7 12.7h14.3c-7 0-12.7-5.7-12.7-12.7v-53.1c0-7-5.7-12.7-12.7-12.7H658c7 0 12.7 5.7 12.7 12.7z m26.9 124.9h-14.3c-7 0-12.7 5.7-12.7 12.7v159.5c0 7 5.7 12.7 12.7 12.7h14.3c-7 0-12.7-5.7-12.7-12.7V535.8c0.1-7 5.8-12.6 12.7-12.6z m76.3-59.1h-14.3c41 0 74.3 33.3 74.3 74.3v19.2c0.1 1.1 0.2 2.2 0.2 3.4v109.3c0 1.1-0.1 2.3-0.2 3.4v15.8c0 39.6-32.1 71.7-71.7 71.7h14.3c39.6 0 71.7-32.1 71.7-71.7v-151c0-41.2-33.2-74.4-74.3-74.4z m-90.6 297c-7 0-12.7 5.7-12.7 12.7v32.5c0 39-31.6 70.7-70.7 70.7h14.3c39 0 70.7-31.6 70.7-70.7v-32.5c0-7 5.7-12.7 12.7-12.7h-14.3z m-197-11.3c-18 0-32.7-14.7-32.7-32.6V504.8c0-18 14.7-32.6 32.6-32.6 18 0 32.6 14.7 32.6 32.6v212.3c0.1 18-14.6 32.7-32.5 32.7z m120.2 0c-18 0-32.7-14.7-32.7-32.6V504.8c0-18 14.7-32.6 32.6-32.6 18 0 32.6 14.7 32.6 32.6v212.3c0.1 18-14.6 32.7-32.5 32.7z m-240.4 0c-18 0-32.7-14.7-32.7-32.6V504.8c0-18 14.7-32.6 32.6-32.6 18 0 32.6 14.7 32.6 32.6v212.3c0.2 18-14.5 32.7-32.5 32.7z" fill="#D88A00" p-id="11790"></path><path d="M628.7 820.7H346.9c-6.1 0-11.1-5-11.1-11.1s5-11.1 11.1-11.1h281.9c6.1 0 11.1 5 11.1 11.1s-5 11.1-11.2 11.1z m79-100.5h61.7c27.6 0 50-22.4 50-50V560.9c0-27.6-22.4-50-50-50h-61.7c-13.7 0-24.9 11.2-24.9 24.9v159.5c0 13.7 11.2 24.9 24.9 24.9z m0-184.8h61.7c14.1 0 25.5 11.4 25.5 25.5v109.3c0 14.1-11.4 25.5-25.5 25.5l-62.1-0.4 0.4-159.9zM561 889.3h7.7c6.8 0 12.3-5.5 12.3-12.3 0-6.8-5.5-12.3-12.3-12.3H561c-6.8 0-12.3 5.5-12.3 12.3 0 6.8 5.5 12.3 12.3 12.3z" fill="#333333" p-id="11791"></path><path d="M842.5 492.9c-5.3 3.4-7.1 10.4-4 15.9 4.8 8.8 7.5 18.9 7.5 29.6v151c0 32.8-26.6 59.5-59.5 59.5h-78.9c-13.8 0-24.9 11.2-24.9 24.9v32.5c0 32.3-26.2 58.4-58.4 58.4h-6.7c-6.8 0-12.3 5.5-12.3 12.3 0 6.8 5.5 12.3 12.3 12.3h6.7c45.7 0 82.9-37.2 82.9-82.9l0.3-22.7c0.1-5.7 4.7-10.2 10.4-10.2h68.6c46.4 0 84-37.6 84-84v-151c0-14.9-3.8-28.9-10.5-41.2-3.4-6.2-11.3-8.3-17.3-4.4h-0.2z m-25.2-34.3c-10.3-4.3-21.5-6.8-33.4-6.8l-67.1-0.4c-5.3 0-9.6-4.3-9.6-9.6v-43.6c0-13.8-11.2-24.9-24.9-24.9H343.1c-20.4 0-39.2 7.4-53.6 19.7l-0.5 29.7c-2.2-15.8-9.4-19.7-9.4-19.7-12.1 14.4-19.3 33-19.3 53.2v262.4c0 6.8 5.5 12.3 12.3 12.3 6.8 0 12.3-5.5 12.3-12.3V456.3c0-32.2 26.2-58.4 58.4-58.4l339.7 0.4v53.1c0 13.8 11.2 24.9 24.9 24.9H784c8.3 0 16.1 1.6 23.3 4.6 3.9 1.6 8.3 1.1 11.8-1.3l0.2-0.2c7.7-5.3 6.7-17.2-2-20.8zM512 864.8H343.1c-32.3 0-58.4-26.2-58.4-58.4v-38.6c0-6.8-5.5-12.3-12.3-12.3-6.8 0-12.3 5.5-12.3 12.3v38.6c0 45.8 37.1 82.9 82.9 82.9h168.2c6.1 0 11.8-4.2 12.7-10.2 1.4-7.7-4.5-14.3-11.9-14.3z" fill="#333333" p-id="11792"></path><path d="M733.6 349.6c-8.7-7.2-19.9-11.6-32-11.6h-16.7c-0.6-27.2-23-49.2-50.3-49.2-20.1 0-37.5 11.9-45.5 29-8-54.2-54.9-96.1-111.2-96.1-63.1 0-114.7 51.6-114.7 114.7 0 5.5 0.6 10.8 1.4 16-7.4-4.3-16-6.9-25.2-6.9-27.7 0-50.4 22.7-50.4 50.4v26.9c0-15.1-12.4-27.5-27.5-27.5S234 407.7 234 422.8v116.9c3.4 1.5 7.1 2.3 11 2.3 15.1 0 27.5-12.4 27.5-27.5v-87.1c0 27.7 22.7 50.4 50.4 50.4s50.4-22.7 50.4-50.4v-40.7 0.1c0 26.8 21.7 48.6 48.6 48.6 26.8 0 48.6-21.7 48.6-48.6v-0.1H695v-1c18.6-3.8 33.5-17.9 38.6-36.1z" fill="#FFF7D4" p-id="11793"></path><path d="M217.5 541.2c0 15.1 12.4 27.5 27.5 27.5s27.5-12.4 27.5-27.5v-26.7c0 15.1-12.4 27.5-27.5 27.5-3.9 0-7.6-0.9-11-2.3l-16.5 1.5z m516-191.5c-5 18.1-19.9 32.1-38.5 35.9v1H470.2v0.1c0 26.8-21.7 48.6-48.6 48.6-26.8 0-48.6-21.7-48.6-48.6v26.7c0 26.8 21.7 48.6 48.6 48.6 26.8 0 48.6-21.7 48.6-48.6v-0.1H695v-1c22.9-4.7 40.3-25.1 40.3-49.3 0.1-4.6-0.6-9-1.8-13.3zM322.8 477.8c-27.7 0-50.4-22.7-50.4-50.4v26.7c0 27.7 22.7 50.4 50.4 50.4s50.4-22.7 50.4-50.4v-26.7c-0.1 27.7-22.7 50.4-50.4 50.4z" fill="#D88A00" p-id="11794"></path><path d="M373.1 386.7v0.1c0-0.1 0.1-0.1 0-0.1z" fill="#D88A00" p-id="11795"></path><path d="M542.1 562.1a17.2 17.2 0 1 0 34.4 0 17.2 17.2 0 1 0-34.4 0zM396.6 562.1a17.2 17.2 0 1 0 34.4 0 17.2 17.2 0 1 0-34.4 0zM486.6 638.6c-20 0-36.3-16.3-36.3-36.3v-1c0.4-5 4.6-8.8 9.6-8.6s8.8 4.2 8.8 9.2v0.8c0 9.5 8.1 17.6 18 17.6s18-8.1 18-18c0-5.1 4.1-9.2 9.2-9.2s9.2 4.1 9.2 9.2c-0.2 20-16.5 36.3-36.5 36.3z" fill="#333333" p-id="11796"></path><path d="M565.3 606.7a22.1 22.1 0 1 0 44.2 0 22.1 22.1 0 1 0-44.2 0zM366.1 608.8a22.1 22.1 0 1 0 44.2 0 22.1 22.1 0 1 0-44.2 0z" fill="#FFF7D4" p-id="11797"></path><path d="M324.567 708.817a12.3 12.3 0 1 0 22.459-10.037 12.3 12.3 0 1 0-22.46 10.037zM335.8 677.2c-6.8 0-12.3-5.5-12.3-12.3V535.8c0-6.8 5.5-12.3 12.3-12.3S348 529 348 535.8V665c0 6.7-5.5 12.2-12.2 12.2z" fill="#FFFFFF" p-id="11798"></path><path d="M579.6 387c0.3-6.9-5.3-12.6-12.1-12.6h-97.3c-6.8 0-12.3 5.5-12.3 12.3v0.3c-0.1 19.9-16.4 36.1-36.3 36.1-20 0-36.2-16.2-36.3-36.2 0-0.8-0.1-1.6-0.2-2.4-1.1-6.2-6.8-10.6-13.2-10-5.9 0.5-10.6 5.3-11.1 11.1v40.3c0 18.6-12.8 35.6-31.1 38.9-23.9 4.3-44.7-13.9-45.1-36.9-0.1-5.6-3.5-10.9-8.9-12.4-8.2-2.2-15.6 4-15.6 11.8v86.4c0 7.1-4.5 13.8-11.4 15.5-10 2.5-19-5.1-19-14.8v-143c0-7.1 4.5-13.8 11.4-15.5 10-2.5 18.9 5 19.1 14.5 0.1 6.1 4.6 11.6 10.6 12.4 7.5 1 13.9-4.8 13.9-12.1v-23.3c0-9.1 2.4-18.2 7.7-25.5 12.8-17.6 33.8-20 49.4-10.9 4.1 2.4 9.2 2.2 13.1-0.5s5.9-7.4 5.2-12c-0.8-5.2-1.2-9.8-1.2-14.1 0-7.6 0.9-15 2.4-22.1 1-4.7-0.9-9.5-4.8-12.3l-0.2-0.1c-7.1-5-17-1.2-18.9 7.2-1.8 8.2-2.9 16.6-3 25.3-3.8-0.7-7.7-1.1-11.6-1.1-31.3 0-57.3 23.1-61.9 53.1-6.9-3-14.7-4.2-22.9-2.7-19.3 3.3-32.7 21.1-32.7 40.6v141.1c0 18.8 12.5 36 30.8 40 25.8 5.6 48.6-13.9 48.6-38.8V477c10.6 8.1 23.8 13 38.1 13 31.9 0 58.3-24 62.1-54.9 10.2 7.8 23 12.4 36.8 12.4 29.4 0 53.9-20.9 59.6-48.7h86.2c6.5 0 11.8-5.2 12.1-11.8 0 0.1 0 0.1 0 0z m24.6-1.2v0.2c-0.3 7 5.1 12.8 12.1 12.8h5.1c6.7 0 12.1-5.4 12.1-12.1v-0.2c0-6.7-5.4-12.1-12.1-12.1h-5c-6.5 0-11.9 5-12.2 11.4z" fill="#333333" p-id="11799"></path><path d="M683.3 273.7h-4.2c-6.2-28-31.5-49.2-61.1-49.2-14.7 0-28.8 5.3-39.9 14.5-17.9-47.9-64.3-81.5-116.9-81.5-41.2 0-77.8 19.8-101 50.4-4 5.3-2.7 13 2.8 16.9l0.6 0.4c5.3 3.7 12.4 2.3 16.3-2.8 18.7-24.5 48.2-40.4 81.3-40.4 49 0 91.4 36.5 99 85 0.6 3.7 2.4 7.2 5.6 9.2 6.7 4.1 14.7 1.3 17.7-5.1 10.4-22.1 40.6-31.3 62.8-9.9 6.8 6.5 9.4 15.8 9.7 25.1 0.2 6.6 5.6 11.9 12.2 11.9h15.3c16.9 0 32.8 10.4 37.8 26.5 7 22.5-7.3 44.5-28.8 48.9-0.8 0.2-1.7 0.4-2.4 0.8h-19.9c-6.8 0-12.3 5.5-12.3 12.3 0 6.8 5.5 12.3 12.3 12.3H695c2.8 0 5.3-0.9 7.4-2.5 31.8-9.3 52.5-42.8 42.8-77.4-7.6-27.3-33.6-45.4-61.9-45.4zM900.1 249.4H891c-3 0-5.5-2.5-5.5-5.5v-9.1c0-2.9-1.7-5.8-4.5-6.7-4.6-1.5-8.9 1.9-8.9 6.3v9.4c0 3-2.5 5.5-5.5 5.5h-9.1c-2.9 0-5.8 1.7-6.7 4.5-1.5 4.6 1.9 8.9 6.3 8.9h9.4c3 0 5.5 2.5 5.5 5.5v9.1c0 2.9 1.7 5.8 4.5 6.7 4.6 1.5 8.9-1.9 8.9-6.3v-9.4c0-3 2.5-5.5 5.5-5.5h9.4c4.4 0 7.9-4.3 6.3-8.9-0.7-2.8-3.5-4.5-6.5-4.5zM632 98.2a8.1 8.1 0 1 0 16.2 0 8.1 8.1 0 1 0-16.2 0zM893.7 178.9c0 3.2-2.6 5.8-5.8 5.8s-5.8-2.6-5.8-5.8 2.6-5.8 5.8-5.8 5.8 2.7 5.8 5.8M819.9 127.4a12.3 12.3 0 1 0 24.6 0 12.3 12.3 0 1 0-24.6 0zM790.8 288a9.5 9.5 0 1 0 19 0 9.5 9.5 0 1 0-19 0zM185.3 234.7v9.1c0 3-2.5 5.5-5.5 5.5h-9.1c-2.9 0-5.8 1.7-6.7 4.5-1.5 4.6 1.9 8.9 6.3 8.9h9.4c3 0 5.5 2.5 5.5 5.5v9.1c0 2.9 1.7 5.8 4.5 6.7 4.6 1.5 8.9-1.9 8.9-6.3v-9.4c0-3 2.5-5.5 5.5-5.5h9.1c2.9 0 5.8-1.7 6.7-4.5 1.5-4.6-1.9-8.9-6.3-8.9h-9.4c-3 0-5.5-2.5-5.5-5.5v-9.4c0-4.4-4.3-7.9-8.9-6.3-2.8 0.7-4.5 3.6-4.5 6.5zM121.3 561.4v9.1c0 3-2.5 5.5-5.5 5.5h-9.1c-2.9 0-5.8 1.7-6.7 4.5-1.5 4.6 1.9 8.9 6.3 8.9h9.4c3 0 5.5 2.5 5.5 5.5v9.1c0 2.9 1.7 5.8 4.5 6.7 4.6 1.5 8.9-1.9 8.9-6.3V595c0-3 2.5-5.5 5.5-5.5h9.1c2.9 0 5.8-1.7 6.7-4.5 1.5-4.6-1.9-8.9-6.3-8.9h-9.4c-3 0-5.5-2.5-5.5-5.5v-9.4c0-4.4-4.3-7.9-8.9-6.3-2.8 0.8-4.5 3.6-4.5 6.5zM120.6 218.7a8.1 8.1 0 1 0 16.2 0 8.1 8.1 0 1 0-16.2 0zM155.6 668.3a8.1 8.1 0 1 0 16.2 0 8.1 8.1 0 1 0-16.2 0zM245.6 191.8a12.3 12.3 0 1 0 24.6 0 12.3 12.3 0 1 0-24.6 0zM85.7 703.8a12.3 12.3 0 1 0 24.6 0 12.3 12.3 0 1 0-24.6 0zM704.7 178.9h-0.6c-1.4 0-2.6-1.2-2.6-2.6v-16.2c0-1.4 1.2-2.6 2.6-2.6h0.6c1.4 0 2.6 1.2 2.6 2.6v16.2c0.1 1.4-1.1 2.6-2.6 2.6z m-9.9 3.4l-0.2 0.2c-1.1 1-2.8 1-3.9 0L678.6 171c-1.1-1-1.1-2.7 0-3.7l0.2-0.2c1.1-1 2.8-1 3.9 0l12.1 11.5c1.1 1 1.1 2.7 0 3.7z m-4.3 8.9v0.3c0 1.4-1.2 2.6-2.6 2.6h-17.4c-1.4 0-2.6-1.2-2.6-2.6v-0.3c0-1.4 1.2-2.6 2.6-2.6h17.4c1.4 0 2.6 1.2 2.6 2.6z m3.6 9.3l0.2 0.2c1.1 1 1.1 2.7 0 3.7l-12.1 11.5c-1.1 1-2.8 1-3.9 0l-0.2-0.2c-1.1-1-1.1-2.7 0-3.7l12.1-11.5c1.1-1 2.8-1 3.9 0z m9.3 4.1h0.6c1.4 0 2.6 1.2 2.6 2.6v16.2c0 1.4-1.2 2.6-2.6 2.6h-0.6c-1.4 0-2.6-1.2-2.6-2.6v-16.2c0-1.4 1.2-2.6 2.6-2.6z m9.9-3.4l0.2-0.2c1.1-1 2.8-1 3.9 0l12.1 11.5c1.1 1 1.1 2.7 0 3.7l-0.2 0.2c-1.1 1-2.8 1-3.9 0l-12.1-11.5c-1-1-1-2.7 0-3.7z m4.4-9v-0.3c0-1.4 1.2-2.6 2.6-2.6h17.4c1.4 0 2.6 1.2 2.6 2.6v0.3c0 1.4-1.2 2.6-2.6 2.6h-17.4c-1.5 0-2.6-1.1-2.6-2.6z m-3.6-9.2l-0.2-0.2c-1.1-1-1.1-2.7 0-3.7l12.1-11.5c1.1-1 2.8-1 3.9 0l0.2 0.2c1.1 1 1.1 2.7 0 3.7L718 183c-1.1 1-2.9 1-3.9 0z" fill="#333333" p-id="11800"></path></svg>